<?xml version="1.0" encoding="utf-8"?>
<!-- Generator: Adobe Illustrator 16.0.0, SVG Export Plug-In . SVG Version: 6.00 Build 0)  -->
<!DOCTYPE svg PUBLIC "-//W3C//DTD SVG 1.1//EN" "http://www.w3.org/Graphics/SVG/1.1/DTD/svg11.dtd">
<svg version="1.1" id="Layer_1" xmlns="http://www.w3.org/2000/svg" xmlns:xlink="http://www.w3.org/1999/xlink" x="0px" y="0px"
	 width="161px" height="161px" viewBox="0 0 161 161" enable-background="new 0 0 161 161" xml:space="preserve">
<g id="Layer_2" display="none">
	<rect display="inline" fill="#1D1E62" width="161" height="161"/>
</g>
<g id="Layer_1_1_">
	<polygon fill="#F47529" points="12.982,42.937 11.713,121.85 34.708,135.633 35.968,57.236 	"/>
	<polygon fill="#F47529" points="149.318,45.129 148.05,124.042 124.624,137.078 125.885,58.682 	"/>
	<polygon fill="#F29C32" points="13.964,41.675 36.873,56.102 105.284,18.385 81.773,5.193 	"/>
	<polygon fill="#F29C32" points="125.053,57.52 148.234,43.968 117.387,25.728 94.262,39.1 	"/>
	<g>
		<g>
			<g>
				<path fill="#3D77A8" d="M79.934,48.621c-6.44,0-11.66,5.22-11.66,11.66c0,3.789,1.82,7.14,4.63,9.271
					c1.33,1.02,2.88,1.75,4.58,2.119l0.159,79.599l2.286,4.729l2.446-4.729l0.009-79.599c1.8-0.391,3.45-1.199,4.841-2.311
					c2.659-2.139,4.358-5.409,4.358-9.08C91.583,53.84,86.363,48.621,79.934,48.621 M84.475,63.92c-1.07,1.33-2.711,2.18-4.541,2.18
					c-1.83,0-3.46-0.84-4.53-2.16c-0.81-1-1.3-2.27-1.3-3.66c0-3.219,2.61-5.83,5.83-5.83c3.21,0,5.82,2.611,5.82,5.83
					C85.754,61.66,85.273,62.92,84.475,63.92"/>
			</g>
		</g>
		<g>
			<g>
				<path fill="#3D77A8" d="M100.357,75c-4.828,0-8.742,3.915-8.742,8.745c0,2.841,1.363,5.354,3.472,6.95
					c0.997,0.766,2.16,1.313,3.435,1.591v54.389l1.838,2.595l1.838-2.595V92.286c1.353-0.293,2.591-0.899,3.633-1.731
					c1.99-1.604,3.271-4.059,3.271-6.81C109.096,78.915,105.182,75,100.357,75 M103.764,86.475
					c-0.803,0.998-2.031,1.635-3.404,1.635s-2.596-0.631-3.396-1.621c-0.606-0.75-0.976-1.698-0.976-2.74
					c0-2.416,1.957-4.373,4.371-4.373c2.406,0,4.365,1.957,4.365,4.373C104.725,84.779,104.363,85.725,103.764,86.475"/>
			</g>
		</g>
		<g>
			<g>
				<path fill="#3D77A8" d="M59.628,75c-4.83,0-8.744,3.915-8.744,8.745c0,2.841,1.365,5.354,3.472,6.95
					c0.997,0.766,2.159,1.313,3.434,1.591v54.389l1.838,2.595l1.837-2.595V92.286c1.35-0.293,2.587-0.899,3.63-1.731
					c1.994-1.604,3.269-4.059,3.269-6.81C68.364,78.915,64.449,75,59.628,75 M63.032,86.475c-0.802,0.998-2.032,1.635-3.404,1.635
					c-1.373,0-2.595-0.631-3.397-1.621c-0.608-0.75-0.975-1.7-0.975-2.742c0-2.416,1.957-4.373,4.372-4.373
					c2.407,0,4.364,1.957,4.364,4.373C63.992,84.779,63.632,85.725,63.032,86.475"/>
			</g>
		</g>
	</g>
</g>
<ellipse fill="#FFFFFF" cx="79.75" cy="60.049" rx="6" ry="6.051"/>
<ellipse fill="#FFFFFF" cx="100.359" cy="83.714" rx="4.368" ry="4.34"/>
<ellipse fill="#FFFFFF" cx="59.624" cy="83.714" rx="4.368" ry="4.34"/>
</svg>
