<?xml version="1.0" encoding="utf-8"?>
<!-- Generator: Adobe Illustrator 16.0.0, SVG Export Plug-In . SVG Version: 6.00 Build 0)  -->
<!DOCTYPE svg PUBLIC "-//W3C//DTD SVG 1.1//EN" "http://www.w3.org/Graphics/SVG/1.1/DTD/svg11.dtd">
<svg version="1.1" id="Layer_1" xmlns="http://www.w3.org/2000/svg" xmlns:xlink="http://www.w3.org/1999/xlink" x="0px" y="0px"
	 width="152px" height="209px" viewBox="0 0 152 209" enable-background="new 0 0 152 209" xml:space="preserve">
<polygon fill="#F47529" points="8.982,44.728 7.713,123.641 30.708,137.424 31.968,59.027 "/>
<polygon fill="#F47529" points="145.318,46.92 144.05,125.833 120.624,138.869 121.885,60.473 "/>
<polygon fill="#F29C32" points="9.964,43.466 32.873,57.893 101.284,20.176 77.774,6.984 "/>
<polygon fill="#F29C32" points="121.053,59.311 144.234,45.759 113.387,27.519 90.261,40.891 "/>
<g>
	<defs>
		<rect id="SVGID_1_" width="152" height="209"/>
	</defs>
	<clipPath id="SVGID_2_">
		<use xlink:href="#SVGID_1_"  overflow="visible"/>
	</clipPath>
	<path clip-path="url(#SVGID_2_)" fill="#2C68A1" d="M75.934,50.412c-6.44,0-11.66,5.22-11.66,11.66c0,3.79,1.82,7.14,4.63,9.27
		c1.33,1.02,2.88,1.75,4.58,2.12l0.159,79.596l2.286,4.732l2.446-4.732l0.009-79.596c1.8-0.39,3.45-1.2,4.84-2.31
		c2.66-2.14,4.359-5.41,4.359-9.08C87.583,55.631,82.363,50.412,75.934,50.412 M80.474,65.711c-1.07,1.33-2.71,2.18-4.54,2.18
		s-3.46-0.84-4.53-2.16c-0.81-1-1.3-2.27-1.3-3.66c0-3.22,2.61-5.83,5.83-5.83c3.21,0,5.82,2.61,5.82,5.83
		C81.754,63.451,81.273,64.711,80.474,65.711"/>
	<path clip-path="url(#SVGID_2_)" fill="#2C68A1" d="M96.358,76.791c-4.829,0-8.743,3.915-8.743,8.745
		c0,2.841,1.364,5.354,3.472,6.951c0.997,0.765,2.16,1.312,3.435,1.59v54.389l1.837,2.595l1.838-2.595V94.077
		c1.35-0.293,2.588-0.9,3.63-1.732c1.994-1.605,3.269-4.058,3.269-6.809C105.095,80.706,101.181,76.791,96.358,76.791
		 M99.764,88.265c-0.803,0.998-2.032,1.635-3.405,1.635c-1.372,0-2.595-0.63-3.396-1.62c-0.607-0.75-0.975-1.702-0.975-2.744
		c0-2.416,1.957-4.373,4.371-4.373c2.407,0,4.365,1.957,4.365,4.373C100.724,86.57,100.363,87.515,99.764,88.265"/>
	<path clip-path="url(#SVGID_2_)" fill="#2C68A1" d="M55.628,76.791c-4.83,0-8.744,3.915-8.744,8.745
		c0,2.841,1.365,5.354,3.472,6.951c0.997,0.765,2.159,1.312,3.434,1.59v54.389l1.838,2.595l1.837-2.595V94.077
		c1.35-0.293,2.587-0.9,3.63-1.732c1.994-1.605,3.269-4.058,3.269-6.809C64.364,80.706,60.449,76.791,55.628,76.791 M59.032,88.265
		c-0.802,0.998-2.032,1.635-3.404,1.635c-1.373,0-2.595-0.63-3.397-1.62c-0.608-0.75-0.975-1.702-0.975-2.744
		c0-2.416,1.957-4.373,4.372-4.373c2.407,0,4.364,1.957,4.364,4.373C59.992,86.57,59.632,87.515,59.032,88.265"/>
	<rect x="19.814" y="163.908" clip-path="url(#SVGID_2_)" fill="#F47529" width="4.909" height="26.676"/>
	<path clip-path="url(#SVGID_2_)" fill="#F47529" d="M30.567,172.498h4.441v2.901h0.078c0.415-0.904,1.136-1.701,2.162-2.393
		c1.026-0.69,2.24-1.036,3.643-1.036c1.22,0,2.265,0.208,3.135,0.622c0.871,0.414,1.584,0.961,2.143,1.639
		c0.559,0.679,0.967,1.457,1.228,2.336c0.259,0.88,0.389,1.784,0.389,2.713v11.304h-4.675v-10.023c0-0.526-0.039-1.079-0.117-1.657
		c-0.078-0.577-0.247-1.098-0.506-1.563c-0.26-0.464-0.617-0.848-1.071-1.148c-0.455-0.302-1.059-0.452-1.812-0.452
		c-0.754,0-1.403,0.145-1.948,0.433c-0.546,0.289-0.993,0.659-1.344,1.111c-0.35,0.452-0.617,0.975-0.799,1.564
		c-0.182,0.589-0.272,1.187-0.272,1.789v9.947h-4.675V172.498z"/>
	<path clip-path="url(#SVGID_2_)" fill="#F47529" d="M72.251,190.584H67.81v-2.713h-0.078c-0.65,1.055-1.552,1.859-2.707,2.411
		c-1.157,0.553-2.396,0.829-3.721,0.829c-1.429,0-2.708-0.258-3.837-0.772c-1.13-0.515-2.091-1.205-2.883-2.072
		c-0.793-0.866-1.403-1.884-1.831-3.052c-0.429-1.168-0.643-2.417-0.643-3.749c0-1.331,0.22-2.574,0.662-3.73
		c0.442-1.154,1.065-2.159,1.87-3.014c0.805-0.854,1.766-1.527,2.883-2.016c1.116-0.49,2.338-0.735,3.662-0.735
		c0.857,0,1.623,0.095,2.299,0.283c0.675,0.188,1.266,0.421,1.772,0.696c0.506,0.277,0.941,0.578,1.305,0.904
		c0.363,0.327,0.662,0.641,0.896,0.942h0.117V162.1h4.675V190.584z M56.863,181.466c0,0.703,0.11,1.407,0.331,2.11
		c0.22,0.702,0.551,1.331,0.993,1.884c0.442,0.553,1,1.005,1.676,1.356c0.675,0.352,1.466,0.527,2.376,0.527
		c0.857,0,1.623-0.17,2.298-0.509c0.676-0.339,1.253-0.785,1.734-1.338c0.48-0.553,0.844-1.174,1.091-1.864
		c0.247-0.691,0.37-1.388,0.37-2.092c0-0.703-0.123-1.406-0.37-2.109s-0.611-1.331-1.091-1.884
		c-0.481-0.553-1.058-1.005-1.734-1.356c-0.675-0.352-1.441-0.528-2.298-0.528c-0.91,0-1.701,0.17-2.376,0.509
		c-0.676,0.34-1.234,0.785-1.676,1.338c-0.442,0.553-0.773,1.175-0.993,1.865C56.973,180.066,56.863,180.763,56.863,181.466"/>
	<path clip-path="url(#SVGID_2_)" fill="#F47529" d="M95.781,181.768v0.603c0,0.201-0.014,0.402-0.039,0.603h-14.22
		c0.052,0.654,0.227,1.25,0.526,1.79c0.298,0.54,0.694,1.005,1.188,1.395s1.053,0.696,1.676,0.923
		c0.623,0.226,1.272,0.339,1.947,0.339c1.169,0,2.156-0.208,2.961-0.622s1.467-0.985,1.987-1.714l3.116,2.411
		c-1.844,2.412-4.519,3.617-8.025,3.617c-1.454,0-2.792-0.22-4.013-0.659c-1.222-0.439-2.279-1.061-3.176-1.866
		c-0.896-0.803-1.597-1.789-2.104-2.958c-0.506-1.167-0.759-2.491-0.759-3.974c0-1.456,0.253-2.781,0.759-3.975
		c0.507-1.193,1.202-2.211,2.085-3.053c0.882-0.841,1.928-1.494,3.137-1.959c1.207-0.465,2.513-0.697,3.915-0.697
		c1.298,0,2.499,0.208,3.604,0.622c1.104,0.414,2.058,1.03,2.863,1.846c0.805,0.817,1.435,1.834,1.89,3.053
		C95.554,178.71,95.781,180.135,95.781,181.768 M91.106,179.732c0-0.577-0.085-1.13-0.254-1.657s-0.435-0.992-0.798-1.395
		c-0.364-0.401-0.825-0.722-1.385-0.961c-0.558-0.238-1.213-0.357-1.966-0.357c-1.402,0-2.591,0.408-3.564,1.224
		c-0.975,0.817-1.514,1.865-1.617,3.146H91.106z"/>
	<polygon clip-path="url(#SVGID_2_)" fill="#F47529" points="98.819,186.59 108.909,176.115 99.287,176.115 99.287,172.498 
		114.48,172.498 114.48,176.492 104.352,186.892 114.948,186.892 114.948,190.584 98.819,190.584 	"/>
	<path clip-path="url(#SVGID_2_)" fill="#F47529" d="M116.272,172.498h5.181l5.221,13.15h0.078l4.636-13.15h4.87l-8.844,21.967
		c-0.338,0.829-0.701,1.563-1.091,2.204s-0.857,1.181-1.402,1.62c-0.545,0.438-1.188,0.771-1.929,0.999
		c-0.74,0.226-1.63,0.339-2.668,0.339c-0.39,0-0.786-0.02-1.188-0.057c-0.403-0.038-0.813-0.107-1.228-0.207l0.39-3.919
		c0.312,0.101,0.617,0.17,0.916,0.207c0.298,0.038,0.577,0.057,0.837,0.057c0.493,0,0.909-0.057,1.247-0.169
		c0.337-0.113,0.623-0.289,0.857-0.528c0.233-0.238,0.44-0.534,0.623-0.885c0.182-0.353,0.376-0.767,0.584-1.243l0.936-2.299
		L116.272,172.498z"/>
</g>
</svg>
