<?xml version="1.0" encoding="utf-8"?>
<!-- Generator: Adobe Illustrator 16.0.0, SVG Export Plug-In . SVG Version: 6.00 Build 0)  -->
<!DOCTYPE svg PUBLIC "-//W3C//DTD SVG 1.1//EN" "http://www.w3.org/Graphics/SVG/1.1/DTD/svg11.dtd">
<svg version="1.1" id="Layer_1" xmlns="http://www.w3.org/2000/svg" xmlns:xlink="http://www.w3.org/1999/xlink" x="0px" y="0px"
	 width="1080px" height="6000px" viewBox="0 0 1080 6000" enable-background="new 0 0 1080 6000" xml:space="preserve">
<circle fill="#FFFFFF" stroke="#E6E6E6" stroke-width="30" stroke-miterlimit="10" cx="153.5" cy="180.5" r="50.5"/>
<line fill="#FFFFFF" stroke="#E6E6E6" stroke-width="30" stroke-miterlimit="10" x1="153.5" y1="231" x2="153" y2="592"/>
<line fill="#FFFFFF" stroke="#E6E6E6" stroke-width="30" stroke-miterlimit="10" x1="142" y1="578" x2="323" y2="616"/>
<circle fill="#FFFFFF" stroke="#E6E6E6" stroke-width="30" stroke-miterlimit="10" cx="316.5" cy="310.5" r="50.5"/>
<circle fill="#FFFFFF" stroke="#E6E6E6" stroke-width="30" stroke-miterlimit="10" cx="549.5" cy="536.5" r="50.5"/>
<line fill="#FFFFFF" stroke="#E6E6E6" stroke-width="30" stroke-miterlimit="10" x1="311.202" y1="842" x2="314.798" y2="362"/>
<line fill="#FFFFFF" stroke="#E6E6E6" stroke-width="30" stroke-miterlimit="10" x1="315" y1="680" x2="516" y2="555"/>
<line fill="#FFFFFF" stroke="#E6E6E6" stroke-width="30" stroke-miterlimit="10" x1="300" y1="829" x2="780" y2="924"/>
<line fill="#FFFFFF" stroke="#E6E6E6" stroke-width="30" stroke-miterlimit="10" x1="768" y1="911" x2="768" y2="1130"/>
<line fill="#FFFFFF" stroke="#E6E6E6" stroke-width="30" stroke-miterlimit="10" x1="542" y1="872" x2="542" y2="1056"/>
<circle fill="#FFFFFF" stroke="#E6E6E6" stroke-width="30" stroke-miterlimit="10" cx="543.5" cy="1094.5" r="50.5"/>
<circle fill="#FFFFFF" stroke="#E6E6E6" stroke-width="30" stroke-miterlimit="10" cx="768.5" cy="1167.5" r="50.5"/>
<line fill="#FFFFFF" stroke="#E6E6E6" stroke-width="30" stroke-miterlimit="10" x1="313" y1="758" x2="142" y2="906.074"/>
<line fill="#FFFFFF" stroke="#E6E6E6" stroke-width="30" stroke-miterlimit="10" x1="144.772" y1="896" x2="143.702" y2="1361"/>
<rect x="120" y="1265" fill="#1D1E62" fill-opacity="0.4" stroke="#E6E6E6" stroke-width="30" stroke-miterlimit="10" width="54" height="103"/>
<line fill="none" stroke="#E6E6E6" stroke-width="30" stroke-miterlimit="10" x1="120.112" y1="1361.668" x2="118.612" y2="1736.65"/>
<line fill="none" stroke="#E6E6E6" stroke-width="30" stroke-miterlimit="10" x1="166.718" y1="1368.339" x2="657.584" y2="1581.659"/>
<circle fill="#FFFFFF" stroke="#E6E6E6" stroke-width="30" stroke-miterlimit="10" cx="691.5" cy="1598.5" r="50.5"/>
<circle fill="#FFFFFF" stroke="#E6E6E6" stroke-width="30" stroke-miterlimit="10" cx="120.5" cy="1776.5" r="50.5"/>
<line fill="none" stroke="#E6E6E6" stroke-width="30" stroke-miterlimit="10" x1="174" y1="1293" x2="939" y2="1293"/>
<circle fill="#FFFFFF" stroke="#E6E6E6" stroke-width="30" stroke-miterlimit="10" cx="965.5" cy="1295.5" r="50.5"/>
<path fill="#FFFFFF" stroke="#E6E6E6" stroke-width="30" stroke-miterlimit="10" d="M377.294,1868.785"/>
<path fill="#FFFFFF" stroke="#E6E6E6" stroke-width="30" stroke-miterlimit="10" d="M365,1755"/>
</svg>
