<?xml version="1.0" encoding="UTF-8"?>
<svg width="262px" height="262px" viewBox="0 0 262 262" version="1.1" xmlns="http://www.w3.org/2000/svg" xmlns:xlink="http://www.w3.org/1999/xlink">
    <!-- Generator: Sketch 55.1 (78136) - https://sketchapp.com -->
    <title>Group 6</title>
    <desc>Created with Sketch.</desc>
    <defs>
        <filter x="-26.2%" y="-26.2%" width="152.4%" height="152.4%" filterUnits="objectBoundingBox" id="filter-1">
            <feOffset dx="0" dy="0" in="SourceAlpha" result="shadowOffsetOuter1"></feOffset>
            <feGaussianBlur stdDeviation="14" in="shadowOffsetOuter1" result="shadowBlurOuter1"></feGaussianBlur>
            <feColorMatrix values="0 0 0 0 0.247058824   0 0 0 0 0.411764706   0 0 0 0 0.721568627  0 0 0 0.460828234 0" type="matrix" in="shadowBlurOuter1" result="shadowMatrixOuter1"></feColorMatrix>
            <feMerge>
                <feMergeNode in="shadowMatrixOuter1"></feMergeNode>
                <feMergeNode in="SourceGraphic"></feMergeNode>
            </feMerge>
        </filter>
    </defs>
    <g id="Page-1" stroke="none" stroke-width="1" fill="none" fill-rule="evenodd">
        <g id="LoginCP" transform="translate(-829.000000, -336.000000)">
            <g id="Group-6" filter="url(#filter-1)" transform="translate(857.000000, 364.000000)">
                <circle id="Oval" fill="#4062B7" cx="103" cy="103" r="103"></circle>
                <g id="Asset-2elephantfarm" transform="translate(69.000000, 34.000000)" fill-rule="nonzero">
                    <path d="M13.8389268,81.0730331 C13.9982256,84.5073165 15.0004283,88.4859975 17.9204883,92.1466893 C15.5206256,88.9400519 14.1014724,85.0897569 13.8389268,81.0730331 L13.8389268,81.0730331 Z M15.2186802,72.0828422 C15.5753842,71.1628505 15.9970953,70.2701621 16.4805274,69.4117328 C15.9848563,70.2645491 15.5606606,71.1580563 15.2124086,72.0828422 L15.2186802,72.0828422 Z M16.486799,69.4117328 C16.5683299,69.2680017 16.6523694,69.1242706 16.7376633,68.9830834 C16.6423349,69.1242706 16.5582953,69.2692736 16.4805274,69.406645 L16.486799,69.4117328 Z M17.0462263,68.4806604 C20.3962037,63.2033254 25.9293015,59.7553643 32.0855386,59.1088825 C23.9061095,59.8415296 19.3065133,64.8886543 17.0424634,68.4755726 L17.0462263,68.4806604 Z M26.8637991,98.9821853 C31.0206198,100.664984 34.2642947,100.358443 34.2642947,100.358443 C31.7320622,100.370017 29.2200049,99.9015242 26.8575275,98.9770975 L26.8637991,98.9821853 Z M40.9761679,45.6871939 L40.8507358,45.6617548 L41,45.6922818 L40.9761679,45.6871939 Z M34.0774008,45.0028812 C28.9252451,45.0132558 23.8426019,46.209255 19.2124392,48.5007625 C24.0970181,46.0973206 29.4761773,44.9091271 34.9039985,45.0346801 L35.1373023,45.0346801 L35.1924924,45.0346801 L35.5512283,45.0473997 C35.721816,45.0537594 35.8898951,45.0613912 36.0529568,45.0702949 L36.2737174,45.0830144 L36.4969866,45.097006 L36.8582311,45.1224451 L37.0877719,45.1402525 L37.4051152,45.1682356 L37.7500535,45.2013064 C37.9892108,45.2258976 38.2250232,45.2521847 38.4574907,45.2801678 L38.8011748,45.3234143 L39.0432588,45.3564852 L39.2477132,45.3857402 C39.4847799,45.420083 39.7168293,45.4569698 39.9426072,45.4938565 L40.1244837,45.5243835 C40.305106,45.5549104 40.4819653,45.5867094 40.6550616,45.6185083 C38.4848085,45.1974841 36.279464,44.9904619 34.0698749,45.0003373 L34.0774008,45.0028812 Z M26.8650534,98.9796414 C31.0218741,100.66244 34.265549,100.355899 34.265549,100.355899 C31.7330539,100.368443 29.2205622,99.9008114 26.8575275,98.9770975 L26.8650534,98.9796414 Z M17.0424634,68.4755726 C20.3924407,63.1982376 25.9255386,59.7502764 32.0817756,59.1037946 C23.9061095,59.8415296 19.3065133,64.8886543 17.0424634,68.4755726 Z M11.7266497,108.641425 C14.1098602,112.546333 16.6598954,116.400362 19.1572491,120 C15.3177716,114.314353 12.1706795,109.34609 11.7266497,108.641425 Z M16.4805274,69.406645 C16.5620583,69.2629139 16.6460978,69.1191827 16.7313917,68.9779955 C16.6423349,69.1242706 16.5582953,69.2692736 16.4805274,69.406645 L16.4805274,69.406645 Z M15.2124086,72.0777543 C15.5691126,71.1577626 15.9908237,70.2650743 16.4742558,69.406645 C15.9804862,70.2613079 15.5583865,71.156521 15.2124086,72.0828422 L15.2124086,72.0777543 Z M13.8326552,81.0679452 C13.991954,84.5022287 14.9941567,88.4809097 17.9142167,92.1416014 C15.5175139,88.9356532 14.1006135,85.0873236 13.8389268,81.0730331 L13.8326552,81.0679452 Z M11.6764769,108.56002 C11.680516,108.569726 11.6860169,108.578737 11.6927831,108.586731 L11.6764769,108.56002 Z M3.07183284,92.1301538 C3.9649096,94.3115598 5.02606541,96.574371 6.20763606,98.871525 C4.56698382,95.5288225 3.28883042,92.626217 3.07183284,92.1301538 Z M-2.25514052e-17,79.927 C0.00772072029,80.5221034 0.0449794034,81.1164353 0.111634595,81.7077395 C0.0551901368,81.0984722 0.0188148193,80.5044684 -2.25514052e-17,79.927 Z" id="Shape" fill="#42714E"></path>
                    <path d="M45.9998585,47.9253264 L45.9745395,47.9165124 C44.5227081,47.4066957 43.0376936,46.9956881 41.5297776,46.6863351 L41.3512782,46.6510793 L41.3702675,46.6510793 L41.219619,46.62086 L41.0373217,46.5868633 C40.8626202,46.5553848 40.6841208,46.5239064 40.5018235,46.4936871 L40.3182603,46.4634678 C40.0903887,46.4269528 39.8561874,46.3904378 39.6169222,46.3564411 L39.4105718,46.3274809 L39.1662428,46.2947434 L38.8193716,46.2519327 C38.5855923,46.2242317 38.3475931,46.1982095 38.105374,46.1738662 L37.7572369,46.1411286 L37.4369507,46.1134276 L37.2052812,46.0957997 L36.8406867,46.0706169 L36.615347,46.0567664 L36.3925392,46.044175 C36.2241675,46.0353611 36.0545297,46.0278062 35.8861579,46.0215105 L35.5240953,46.0089192 L35.4683934,46.0089192 L35.232926,46.0089192 C29.7547698,45.8846316 24.3257269,47.0608499 19.3958508,49.4400688 L19.1350644,49.5659825 L18.8071825,49.7296704 C18.6995765,49.7838133 18.5907045,49.8392153 18.4843644,49.8958765 C18.4126271,49.9319718 18.3404677,49.9697459 18.2678864,50.0091989 L17.7615051,50.2836909 C17.5943993,50.376867 17.4260275,50.4713023 17.2551238,50.5669968 C17.0842201,50.6626912 16.923444,50.7596448 16.7588701,50.8591167 C15.9081495,51.3627717 15.082326,51.9058796 14.2813996,52.4884406 C14.1548043,52.5803576 14.0282089,52.6747929 13.8952838,52.7704874 C13.4538881,53.0978631 13.0209321,53.4336331 12.5964158,53.7777973 L12.3432251,53.985555 L12.1242152,54.1693891 C11.9976199,54.2764158 11.8710246,54.3847016 11.7444292,54.4929874 C11.6178339,54.6012732 11.5330151,54.6780806 11.4292069,54.7725159 C11.3861645,54.8102901 11.3431221,54.8480642 11.3026116,54.8870974 C11.1937396,54.984051 11.0861336,55.0835229 10.9785275,55.1842539 C10.9494106,55.2094366 10.9215596,55.2358785 10.8924427,55.2635795 C10.8152196,55.3353504 10.7405283,55.4058621 10.6645711,55.478892 C10.5886139,55.551922 10.5151886,55.6199154 10.4417633,55.6916863 L10.3063063,55.8176 C10.2088279,55.9120353 10.1126155,56.0064706 10.017669,56.1046834 C9.98602017,56.1336435 9.95563729,56.165122 9.92525441,56.1966004 C9.83663769,56.28474 9.75055286,56.3728796 9.66446804,56.4622784 C9.57838322,56.5516772 9.47963887,56.6750726 9.37962856,56.7770628 C9.35304354,56.8035047 9.32772448,56.8299465 9.30493732,56.8563884 C9.21632059,56.9495646 9.12896981,57.0427408 9.04415094,57.1371761 C8.99351281,57.1900599 8.94414064,57.2442028 8.89730037,57.2970865 C8.82007722,57.3801896 8.74412002,57.4645518 8.67069473,57.548914 C8.6175247,57.6080935 8.56562061,57.6660138 8.51498248,57.7251933 C8.44155719,57.8082964 8.3681319,57.8913994 8.29723852,57.9770208 C8.2491323,58.0311637 8.20229203,58.0853066 8.15798366,58.1394495 C8.08076051,58.2288483 8.00480332,58.318247 7.93137803,58.4089049 C7.8807399,58.4685041 7.83136772,58.5276836 7.7832615,58.5864433 C7.69717668,58.6909517 7.61109185,58.7967193 7.53007085,58.9024868 C7.50728369,58.928509 7.48576248,58.9549509 7.46550723,58.9818125 C7.38701813,59.0800252 7.30852902,59.1794971 7.23257183,59.2789689 C7.15661463,59.3784408 7.1059765,59.4476933 7.03634907,59.5307964 C7.00723215,59.5673114 6.97938118,59.6025672 6.95406211,59.6390822 C6.86924324,59.7486272 6.78695628,59.8581722 6.70087146,59.9689763 C6.65529714,60.0281557 6.61225473,60.0873352 6.57427613,60.1465146 C6.53629754,60.2056941 6.46034034,60.3001294 6.4046384,60.3781959 C6.34893645,60.4562624 6.26791544,60.5683257 6.20208587,60.6640201 L6.07549055,60.8415585 C6.00839503,60.937253 5.94889522,61.0316883 5.87926779,61.1286419 C5.83749134,61.1878213 5.79824678,61.2470008 5.75900223,61.3061802 C5.70456624,61.386765 5.65013025,61.468609 5.59696022,61.5504529 C5.54379018,61.6322968 5.47036489,61.7443601 5.40833318,61.8425728 C5.36275886,61.9114056 5.32056042,61.9806582 5.28173785,62.0503305 C5.24291529,62.1200028 5.20071685,62.186737 5.15514253,62.2505333 C5.07074564,62.3823231 4.98634876,62.5157916 4.90195188,62.6509391 C4.65888885,63.053863 4.42384353,63.4622433 4.19681591,63.8760798 C4.15124159,63.9591829 4.10566727,64.0410268 4.06135891,64.1279073 C4.05666011,64.1351875 4.05243173,64.1427576 4.04869938,64.1505718 C3.96388051,64.3092231 3.87906164,64.4691336 3.79550873,64.629044 C3.49167994,65.2166415 3.20473054,65.8138924 2.93466051,66.4207966 L2.82832043,66.6612919 C2.71185273,66.9294882 2.59791694,67.1976844 2.48904496,67.4696581 C2.45233232,67.5565386 2.41688563,67.6459374 2.38270489,67.734077 C2.17086871,68.2645936 1.97380198,68.8018256 1.79150471,69.345773 C1.75985588,69.4351717 1.73073896,69.5270888 1.70035608,69.6177466 C1.60920744,69.893078 1.52143469,70.1709277 1.4370378,70.4512957 C1.41171874,70.5394353 1.38513372,70.6275749 1.35981465,70.7157145 C1.29145318,70.9473958 1.22562361,71.1815954 1.1635919,71.415795 C1.14333664,71.4875658 1.12434735,71.5593366 1.10535805,71.6323666 C0.975386846,72.1284668 0.856809224,72.6283443 0.749625181,73.1319993 C0.730635882,73.2213981 0.711646583,73.3095377 0.693923237,73.3976773 C0.676199892,73.4858169 0.650880826,73.6066941 0.630625574,73.7124617 C0.614168182,73.7968239 0.59771079,73.8811861 0.58251935,73.9642892 C0.5242855,74.268161 0.471115463,74.573292 0.42300924,74.8796821 C0.4078178,74.9766357 0.391360408,75.0748484 0.377434922,75.1743203 C0.363509436,75.2737921 0.348317997,75.3707457 0.334392511,75.4689585 C0.320467025,75.5671712 0.30654154,75.666643 0.293882007,75.7648558 C0.281222474,75.8630685 0.267296988,75.9625403 0.255903409,76.0620122 C0.24830769,76.114896 0.241977923,76.1690389 0.235648157,76.2231818 L0.217924811,76.4196072 C0.197669559,76.5984048 0.17868026,76.7772023 0.160956915,76.9559998 C0.0925954385,77.6611168 0.0457551679,78.374628 0.0204361026,79.0965335 C0.0204361026,79.2728127 0.0103084766,79.4478328 0.00651061677,79.6241121 C0.00144680373,79.8910492 0,80.1584061 0,80.4261827 C0,80.4677342 0,80.5105449 0,80.5520964 C0.0191701494,81.1237448 0.0558827939,81.711762 0.112850691,82.3148889 C0.338190371,84.3546915 0.893943853,86.6022519 1.70668585,88.9883174 C2.09997533,90.1467239 2.55234262,91.3357694 3.06378774,92.5554539 L3.06378774,92.5642678 L3.06378774,92.5730818 L3.07518132,92.5982645 C3.07518132,92.6095968 3.0865749,92.6221881 3.09290467,92.6385569 C3.31191458,93.1296205 4.60192095,96.0029722 6.25778782,99.3119855 L6.27297926,99.3422048 C7.9187185,102.490048 9.78979742,105.703367 11.7735462,108.887726 L11.7735462,108.887726 L11.7735462,108.887726 L11.7900036,108.914168 L11.805195,108.938091 L11.8241843,108.968311 C12.2723318,109.665873 15.4486085,114.584064 19.3236914,120.212408 C23.5899539,126.256268 27.7080999,131.588715 30.6463774,135.280506 L30.6463774,135.280506 C30.9527381,135.658248 31.2426414,136.027175 31.5211511,136.372179 C32.3488113,137.408463 33.6095958,138.008658 34.9401917,137.999906 C36.2707875,137.99096 37.5233899,137.37405 38.3370434,136.32685 C45.6795724,126.91102 62.8028562,103.841103 67.6767762,87.7858411 C68.5186351,85.0018882 69.009825,82.4193973 68.999851,80.1668003 C68.9591869,65.269945 59.3581973,52.6219091 45.9998585,47.9253264 Z M34.5809601,100.768808 C34.5809601,100.768808 31.3034071,101.07226 27.1118359,99.4064208 L27.0675275,99.3887929 C23.5089671,98.0158622 20.4034769,95.6872972 18.0969827,92.6624805 L18.088121,92.6511483 C15.1409818,89.0273507 14.1294852,85.0963235 13.9687091,81.6890975 L13.9687091,81.6890975 C13.9395922,81.2546951 13.9231348,80.8177744 13.9218689,80.3770763 L13.9218689,80.3116011 C13.9218689,80.2121293 13.9218689,80.1113983 13.9218689,80.0119264 C13.9218689,79.9124546 13.9218689,79.8331289 13.9218689,79.7437301 C13.9218689,79.6329261 13.9294646,79.522122 13.9345284,79.4113179 C13.9395922,79.3005138 13.9421241,79.2262247 13.9484539,79.1330485 C13.9573155,78.9769154 13.9674432,78.8207824 13.9801027,78.6646493 C13.9889644,78.5488087 14.000358,78.4317089 14.0117515,78.3158683 C14.0231451,78.2000276 14.0345387,78.084187 14.0484642,77.9683463 C14.0560599,77.8915389 14.0661875,77.8147316 14.0763152,77.7379242 C14.0864428,77.6611168 14.0953045,77.5843094 14.106698,77.5087611 C14.1434107,77.2342692 14.1864531,76.9635546 14.2332934,76.6928401 L14.2446869,76.6286241 C14.2662081,76.5102651 14.2889953,76.3919062 14.3130484,76.2748064 C14.3371015,76.1577066 14.3611546,76.0393477 14.3864737,75.9235071 C14.4016651,75.8479588 14.4193885,75.7736697 14.4371118,75.6993806 C14.4712926,75.5508024 14.5067393,75.4034833 14.5447179,75.2561642 C14.5826965,75.1088451 14.6206751,74.9627852 14.6624515,74.8167252 C14.6827068,74.7449544 14.704228,74.6719244 14.7244832,74.5988945 C14.7662597,74.4540937 14.810568,74.3092928 14.8510786,74.1657512 C14.9422272,73.8774087 15.0384396,73.5928436 15.1422478,73.3107968 C15.1675669,73.2402851 15.1928859,73.1697734 15.2207369,73.0992617 C15.2207369,73.0803747 15.2346624,73.0627468 15.2409922,73.0451188 L15.2409922,73.0363049 L15.2409922,73.0363049 L15.2625134,72.9796437 C15.2764388,72.9418696 15.2878324,72.9116503 15.2979601,72.8877266 C15.302256,72.8744327 15.3073284,72.8613994 15.3131515,72.8486934 L15.3207472,72.8298063 L15.3207472,72.8298063 C15.3210818,72.8268778 15.3210818,72.8239209 15.3207472,72.8209924 L15.3308748,72.7958096 C15.6803208,71.8805505 16.1063303,70.9960542 16.6044238,70.1516209 L16.6107536,70.1415478 C16.6892427,70.0043019 16.7740616,69.8620193 16.8639442,69.7172185 C16.9133164,69.6353746 16.9652205,69.5522715 17.0183905,69.465391 C17.0715606,69.3785105 17.1209327,69.300444 17.1766347,69.2135635 C19.4642122,65.6627959 24.1064628,60.6665384 32.3554143,59.9362387 L32.3933929,59.9362387 C32.4896053,59.9249064 32.5870837,59.9160925 32.6845621,59.9085377 C33.2593049,59.8581722 33.8407994,59.8317303 34.4290457,59.8290792 C45.798572,59.7889196 55.0476265,68.9227028 55.0806803,80.2272389 C55.1218695,91.5295662 45.9444604,100.725773 34.5809601,100.768808 L34.5809601,100.768808 Z" id="Shape" fill="#FFFFFF"></path>
                    <polygon id="Path" fill="#42714E" points="41.099711 46.0238961 40.900289 45.9761039 41.0678705 46.0159307"></polygon>
                    <path d="M3,92 C1.35163828,88.8767207 0.333851964,85.4840996 0,82 C0.228889841,83.9926199 0.793399057,86.1881919 1.61894556,88.5190652 C2.02014574,89.6482165 2.48049721,90.8085281 3,92 Z" id="Path" fill="#90C34A"></path>
                    <path d="M11,109 C9.46029919,106.680338 7.55581128,102.596202 6,99 C7.49482163,102.296848 9.19677791,105.664908 11,109 Z" id="Path" fill="#90C34A"></path>
                    <path d="M17,50 C16.8401586,50.0923499 16.6791063,50.1859478 16.5156321,50.2807937 C16.3521579,50.3756396 16.1983711,50.4717334 16.0409516,50.5703232 C15.2272135,51.069512 14.4372902,51.607804 13.6711816,52.1851991 C13.5500897,52.276301 13.4289977,52.3698989 13.3018511,52.4647448 C12.8796438,52.7892175 12.4655092,53.1220101 12.0594475,53.4631224 L11.8172635,53.6690378 L11.6077744,53.8512417 C11.4866824,53.9573194 11.3655905,54.064645 11.2444985,54.1719705 C11.1234065,54.2792961 11.0422749,54.3554224 10.9429795,54.4490203 C10.9018082,54.4864595 10.8606369,54.5238987 10.8218875,54.5625858 C10.7177484,54.6586796 10.6148202,54.7572694 10.5118921,54.8571072 C10.4840409,54.8820666 10.4574007,54.9082741 10.4295495,54.9357294 C10.3568943,55.0056159 10.2842391,55.0767503 10.211584,55.1491327 C10.1401397,55.2177711 10.0686954,55.2889055 9.99846209,55.3600399 L9.86889368,55.4848371 C9.77565286,55.578435 9.68362296,55.6720329 9.59280398,55.7693748 C9.56253098,55.7980781 9.53346891,55.8292774 9.50440684,55.8604767 C9.41964245,55.9478348 9.33729991,56.0351928 9.25495737,56.1237988 C9.17261483,56.2124048 9.08300677,56.3347061 8.98734411,56.4357918 C8.96191479,56.4619993 8.9376964,56.4882067 8.91589984,56.5144141 C8.82992454,56.606764 8.747582,56.6991139 8.66645038,56.7927118 C8.61801359,56.8451267 8.57078772,56.8987895 8.52598369,56.9512043 C8.45211758,57.0335704 8.3794624,57.1171846 8.30922906,57.2007987 C8.25837043,57.2594534 8.20872272,57.3168601 8.16028593,57.3755148 C8.08884166,57.4578809 8.01981924,57.5402471 7.95200773,57.6251092 C7.90599278,57.678772 7.86118875,57.7324348 7.81880656,57.7860976 C7.74494046,57.8747036 7.67228527,57.9633096 7.60205193,58.0531636 C7.55361514,58.1122343 7.50638927,58.170889 7.46037432,58.2291277 C7.37682086,58.3327093 7.29568924,58.437539 7.21819037,58.5423687 C7.19639382,58.5681601 7.17580818,58.5943675 7.15643347,58.6209909 C7.08014552,58.7183327 7.00627942,58.8169225 6.93362424,58.9155123 C6.86096905,59.0141021 6.81253226,59.0827405 6.74593168,59.1651067 C6.71808052,59.2012979 6.69144029,59.2362411 6.66722189,59.2724323 C6.58609027,59.3810059 6.50738049,59.4895794 6.42503795,59.599401 C6.38144484,59.6580557 6.34027357,59.7167103 6.30394597,59.775365 C6.26761838,59.8340197 6.1949632,59.9276176 6.14168273,60.0049919 C6.08840226,60.0823662 6.0109034,60.1934357 5.94793557,60.2882815 L5.8268436,60.4642456 C5.76266485,60.5590915 5.69969703,60.6539374 5.63915104,60.7487832 C5.59919069,60.8074379 5.56165218,60.8660926 5.52411366,60.9247473 C5.47204411,61.0046175 5.41997457,61.0857357 5.36911594,61.1668539 C5.31825731,61.247972 5.24802396,61.3590416 5.1886889,61.4563834 C5.14509579,61.5246058 5.10473179,61.5932443 5.06759692,61.6622988 C5.03046205,61.7313532 4.99009806,61.7974957 4.94650495,61.8607263 C4.86537333,61.9855235 4.78787446,62.1240484 4.704321,62.2575814 C4.47182441,62.6569325 4.24699698,63.0616914 4.02983871,63.4718582 C3.9862456,63.5529764 3.94265249,63.6353426 3.9002703,63.7214526 C3.89577577,63.7286683 3.8917312,63.7361712 3.8881611,63.7439161 C3.80702948,63.9011606 3.72589786,64.0596531 3.64597715,64.2181455 C3.35535642,64.8005325 3.08088128,65.3924872 2.82255173,65.9940097 L2.72083447,66.2323724 C2.60942986,66.4981904 2.50044708,66.7640085 2.39630799,67.0335704 C2.36159495,67.1167686 2.3276892,67.2041266 2.29459073,67.2956446 C2.09196349,67.8214568 1.90346365,68.3539249 1.72909121,68.8930488 C1.69922186,68.9829028 1.67015978,69.0727568 1.64190499,69.1626108 C1.55471877,69.4355006 1.47076167,69.7108865 1.39003369,69.9887683 C1.36581529,70.0761263 1.34038598,70.1634843 1.31616758,70.2508424 C1.25077792,70.4804692 1.18781009,70.712592 1.12847502,70.9447148 C1.10910031,71.0158492 1.09093651,71.0869837 1.07277271,71.159366 C0.948451621,71.651067 0.835028806,72.1465119 0.732504269,72.6457007 C0.714340473,72.7343068 0.696176677,72.8216648 0.6792238,72.9090228 C0.662270924,72.9963809 0.638052529,73.1161862 0.618677813,73.2210158 C0.602935857,73.30463 0.5871939,73.3882441 0.572662863,73.4706103 C0.516960556,73.7717875 0.466101927,74.0742127 0.420086977,74.3778859 C0.40555594,74.4739798 0.389813983,74.5713216 0.376493866,74.6699114 C0.363173749,74.7685012 0.348642712,74.864595 0.335322595,74.9619369 C0.322002478,75.0592787 0.308682361,75.1578685 0.296573164,75.2552103 C0.284463966,75.3525521 0.271143849,75.4511419 0.260245572,75.5497317 C0.252980053,75.6021465 0.246925455,75.6558093 0.240870856,75.7094721 L0.22391798,75.9041557 C0.204543264,76.0813678 0.186379468,76.2585798 0.169426591,76.4357918 C0.104036926,77.1346562 0.0592328955,77.8418403 0.0350145007,78.5573443 C0.0350145007,78.7320604 0.0253271429,78.9055285 0.0216943837,79.0802446 C0.0168507047,79.3448147 0.0148325052,79.6098007 0.015639785,79.8752028 C0.015639785,79.9163859 0.015639785,79.9588169 0.015639785,80 C-0.182951052,73.793835 1.5753044,69.4022214 1.5753044,69.4022214 C1.5753044,69.4022214 4.65588421,57.0248346 17,50 Z" id="Path" fill="#90C34A"></path>
                    <path d="M14.0364892,82 C14.0138067,81.5425751 14.0009862,81.0824985 14,80.6184443 L14,80.5494991 C14,80.4447555 14,80.3386859 14,80.2339423 C14,80.1291986 14,80.0456688 14,79.9515321 C14,79.8348556 14.0059172,79.7181791 14.0098619,79.6015027 C14.0138067,79.4848262 14.0167653,79.405274 14.0207101,79.3084856 C14.0276134,79.1440778 14.035503,78.97967 14.0453649,78.8152622 C14.0522682,78.6932823 14.061144,78.5699764 14.0700197,78.4479965 C14.0788955,78.3260165 14.0877712,78.2040365 14.0986193,78.0820566 C14.1055227,78.0011786 14.112426,77.9203005 14.1203156,77.8394225 C14.1282051,77.7585445 14.1351085,77.6776665 14.1439842,77.5981143 C14.1729126,77.3090748 14.2057857,77.0226871 14.2426036,76.7389511 L14.2514793,76.6713318 C14.2682446,76.5467001 14.2859961,76.4220684 14.3047337,76.2987625 C14.3234714,76.1754567 14.3422091,76.0521509 14.3619329,75.928845 C14.3747535,75.8492929 14.387574,75.7710666 14.4013807,75.6928403 C14.4280079,75.5377136 14.4566075,75.381261 14.4852071,75.2261344 C14.5138067,75.0710077 14.5453649,74.9172068 14.5769231,74.763406 C14.5927022,74.6878315 14.6094675,74.6109311 14.6252465,74.5340306 C14.6587771,74.3815557 14.6932939,74.2290807 14.7238659,74.0779316 C14.7948718,73.7743076 14.8698225,73.4746612 14.9506903,73.1776665 C14.9664694,73.1180024 14.9832347,73.0583382 15,73 C14.2601723,75.8916702 13.9332716,78.9451966 14.0364892,82 L14.0364892,82 Z" id="Path" fill="#90C34A"></path>
                    <path d="M30,136 C26.8699687,132.421409 22.6207513,126.384808 19,121 C23.144678,127.012785 27.1454606,132.324893 30,136 Z" id="Path" fill="#90C34A"></path>
                    <path d="M27,99 C23.4296327,97.5705758 20.3140104,95.147314 18,92 C20.9339263,95.7293149 24.1728081,97.8272183 27,99 Z" id="Path" fill="#90C34A"></path>
                    <path d="M32.099711,58.9810823 L32.099711,58.9810823 L31.900289,59.0189177 C31.9656019,59.0109524 32.0326564,58.9930303 32.099711,58.9810823 Z" id="Path" fill="#90C34A"></path>
                    <path d="M35,137.979849 L34.9936869,137.989532 C32.5479798,138.202576 31.0441919,135.094071 31,135 C31.3055556,135.415021 31.594697,135.820358 31.8724747,136.19941 C32.6343175,137.25603 33.7729478,137.90423 35,137.979849 Z" id="Path" fill="#90C34A"></path>
                    <path d="M46,47 C44.6934451,46.5855746 43.3570275,46.2514702 42,46 C44.2671604,46.4053224 45.7185987,46.8996929 46,47 Z" id="Path" fill="#90C34A"></path>
                    <path d="M30.72082,14.9720038 C30.4026614,14.9737036 30.1024072,14.8244401 29.9109939,14.5694052 C29.7195806,14.3143704 29.6595234,13.9835629 29.7490114,13.6771727 L32.9237542,2.64659993 C32.9703305,2.47479989 33.2548237,1.63601149 33.5783404,0.691111297 C33.7176135,0.271684039 34.1123963,-0.00821083356 34.5528716,0.00018379238 C34.9933468,0.00857841832 35.3772547,0.303313663 35.5005578,0.727745128 C35.7661687,1.61201001 35.9977915,2.38763664 36.0393325,2.55817344 L39.1095934,13.6746463 C39.1947832,13.9795088 39.1326684,14.3068157 38.9417805,14.5589173 C38.7508927,14.8110188 38.4532991,14.9587713 38.1377847,14.9580936 L30.72082,14.9720038 Z M19.1925508,17.8698515 L49.7604654,17.7599426 C50.7242566,17.7571545 51.508013,18.5385715 51.5114833,19.5057416 L51.5354173,26.4004812 C51.537408,26.8650533 51.3553393,27.3113794 51.0292837,27.6411852 C50.703228,27.9709909 50.2599206,28.1572335 49.7969711,28.1589051 L19.1119864,28.2675598 C18.6491547,28.2695573 18.2045186,28.0868099 17.8760657,27.7595742 C17.5476127,27.4323385 17.3623008,26.9874728 17.3609684,26.523015 L17.335792,19.6181695 C17.335792,18.6568473 18.235848,17.8736412 19.1925508,17.8698515 Z M16.5993826,123.755518 C14.6545064,128.978997 8.71791355,131.461255 3.12246076,130.929433 C2.47983813,130.865477 1.93478852,130.428259 1.7310661,129.81331 C1.52734367,129.198361 1.70304934,128.520691 2.17960494,128.083363 C5.56331182,125.023807 7.43517646,120.377627 7.8442928,115.601333 C7.97017475,114.113241 9.84959231,113.553628 10.75846,114.736017 C11.5855044,115.813557 12.4805251,117.026263 13.2899461,118.2276 C13.3132826,118.263037 13.3384952,118.297193 13.3654752,118.329922 C14.8395529,120.155297 17.1557808,122.785354 16.5993826,123.755518 Z M66.6072471,130.324343 C61.0369707,131.112602 54.9896017,128.893097 52.8156204,123.755518 C52.2176811,122.811881 54.41558,120.082029 55.8040579,118.197282 C55.8294271,118.1632 55.8529588,118.127779 55.8745518,118.09117 C56.6298435,116.855726 57.470735,115.603859 58.2499442,114.492212 C59.1046827,113.270663 61.0042414,113.744377 61.1980996,115.223626 C61.8212152,119.983497 63.8957498,124.538724 67.4128916,127.445429 C67.9070205,127.859842 68.1130154,128.526544 67.9391892,129.148789 C67.7653631,129.771035 67.244036,130.233129 66.6072471,130.329396 L66.6072471,130.324343 Z M67.9831368,41.4607754 L67.7061965,52.270282 C67.6520673,54.3609368 65.1230989,55.3626826 63.6603506,53.8720647 C56.5480202,46.628672 48.6149396,41.0742253 34.3474791,41.1891797 C20.7522282,41.2965548 12.1079145,45.9301028 5.80374635,53.0939116 C4.1244811,55.000134 0.986244027,53.8126926 1.00004537,51.2660097 C1.02149097,47.2299721 1.07184375,43.1813022 1.07562021,42.8604404 C1.07691744,42.8469973 1.07691744,42.8334599 1.07562021,42.8200168 C0.949738261,42.1252373 1.02778507,41.4519327 1.07562021,40.0699531 C1.14989057,38.1814159 1.20150217,36.2916155 1.81958255,34.481399 C1.88755881,34.2881239 1.95931152,34.1024283 2.03735833,33.9066268 C2.22332664,33.4589566 2.67003528,33.1772894 3.15265054,33.2033916 C3.6352658,33.2294937 4.04921926,33.5577097 4.18616326,34.0228445 C4.59276197,35.4376683 5.31910083,36.9396554 6.56659098,37.0685054 C7.53839966,37.168301 8.40194985,37.4196849 8.39943221,36.4368876 L8.39313812,33.4834429 C8.39313812,31.5721675 10.1403796,30.0158613 12.306808,30.0070187 L56.4913734,29.8263381 C58.6590606,29.8175333 60.4201491,31.3586807 60.4251844,33.2699561 L60.4352549,36.6478479 C60.4352549,37.5194805 61.2132054,37.3123098 62.0792732,37.2301995 C63.5369863,37.0937701 64.333819,35.3707168 64.7580412,33.8080944 C64.8827301,33.3377689 65.2919092,32.9992511 65.7757681,32.966119 C66.2596271,32.9329869 66.7108364,33.2125899 66.8980344,33.6615591 C66.9748224,33.8447283 67.0453163,34.0278974 67.1107749,34.213593 C67.7401846,36.0174934 67.7892786,37.908557 67.8874665,39.7945677 L67.9831368,41.4607754 Z" id="Shape" fill="#FFFFFF"></path>
                </g>
            </g>
        </g>
    </g>
</svg>